PathFileType	4	(X/Y/Z)	C:\Users\Balu\Nextcloud\Documents\MA\Daten\C3D\P03\2016 - pre\Static01\marker_experimental.trc
DataRate	CameraRate	NumFrames	NumMarkers	Units	OrigDataRate	OrigDataStartFrame	OrigNumFrames
150.000000	150.000000	4	104	mm	150.000000	131	150
Frame#	Time	LFHD			LBHD			RFHD			RBHD			C7			T10			CLAV			STRN			RBAK			LSHO			LUPA			LELB			LFRA			LWRB			LWRA			LFIN			RSHO			RUPA			RELB			RFRA			RWRB			RWRA			RFIN			SACR			LASI			RASI			LT1			LT2			LT3			LS1			LS2			LS3			LHEE			LTOE			RT1			RT2			RT3			RS1			RS2			RS3			RHEE			RTOE			LKNE			LKNM			LANK			LANM			RKNM			RKNE			RANM			RANK			SACO			SACA			SACL			SACP			LKJC			RKJC			LAJC			RAJC			LMMA			RMMA			LTHI			RTHI			LTIB			RTIB			funktRKJC			funktLKJC			funktRHIP			funktLHIP			LHJC			RHJC			LPelvisAngles			RPelvisAngles			LFootProgressAngles			RFootProgressAngles			LHipAngles			RHipAngles			LKneeAngles			RKneeAngles			LAnkleAngles			RAnkleAngles			LFFootAngles			RFFootAngles			LAbsAnkleAngle			RAbsAnkleAngle			RNeckAngles			LNeckAngles			RSpineAngles			LSpineAngles			LShoulderAngles			LElbowAngles			LWristAngles			RShoulderAngles			RElbowAngles			RWristAngles			RThoraxAngles			LThoraxAngles			RHeadAngles			LHeadAngles			LNormalisedGRF			RNormalisedGRF			LGroundReactionForce			RGroundReactionForce			LGRF			RGRF			
		X1	Y1	Z1	X2	Y2	Z2	X3	Y3	Z3	X4	Y4	Z4	X5	Y5	Z5	X6	Y6	Z6	X7	Y7	Z7	X8	Y8	Z8	X9	Y9	Z9	X10	Y10	Z10	X11	Y11	Z11	X12	Y12	Z12	X13	Y13	Z13	X14	Y14	Z14	X15	Y15	Z15	X16	Y16	Z16	X17	Y17	Z17	X18	Y18	Z18	X19	Y19	Z19	X20	Y20	Z20	X21	Y21	Z21	X22	Y22	Z22	X23	Y23	Z23	X24	Y24	Z24	X25	Y25	Z25	X26	Y26	Z26	X27	Y27	Z27	X28	Y28	Z28	X29	Y29	Z29	X30	Y30	Z30	X31	Y31	Z31	X32	Y32	Z32	X33	Y33	Z33	X34	Y34	Z34	X35	Y35	Z35	X36	Y36	Z36	X37	Y37	Z37	X38	Y38	Z38	X39	Y39	Z39	X40	Y40	Z40	X41	Y41	Z41	X42	Y42	Z42	X43	Y43	Z43	X44	Y44	Z44	X45	Y45	Z45	X46	Y46	Z46	X47	Y47	Z47	X48	Y48	Z48	X49	Y49	Z49	X50	Y50	Z50	X51	Y51	Z51	X52	Y52	Z52	X53	Y53	Z53	X54	Y54	Z54	X55	Y55	Z55	X56	Y56	Z56	X57	Y57	Z57	X58	Y58	Z58	X59	Y59	Z59	X60	Y60	Z60	X61	Y61	Z61	X62	Y62	Z62	X63	Y63	Z63	X64	Y64	Z64	X65	Y65	Z65	X66	Y66	Z66	X67	Y67	Z67	X68	Y68	Z68	X69	Y69	Z69	X70	Y70	Z70	X71	Y71	Z71	X72	Y72	Z72	X73	Y73	Z73	X74	Y74	Z74	X75	Y75	Z75	X76	Y76	Z76	X77	Y77	Z77	X78	Y78	Z78	X79	Y79	Z79	X80	Y80	Z80	X81	Y81	Z81	X82	Y82	Z82	X83	Y83	Z83	X84	Y84	Z84	X85	Y85	Z85	X86	Y86	Z86	X87	Y87	Z87	X88	Y88	Z88	X89	Y89	Z89	X90	Y90	Z90	X91	Y91	Z91	X92	Y92	Z92	X93	Y93	Z93	X94	Y94	Z94	X95	Y95	Z95	X96	Y96	Z96	X97	Y97	Z97	X98	Y98	Z98	X99	Y99	Z99	X100	Y100	Z100	X101	Y101	Z101	X102	Y102	Z102	X103	Y103	Z103	X104	Y104	Z104	

132	0.8733333333333334	-1141.024047851562	1435.92822265625	-392.3413085937499	-1001.971069335938	1419.911010742188	-368.804229736328	-1145.50341796875	1436.326293945312	-508.4810180664061	-992.2420043945312	1419.774658203125	-517.3814697265624	-965.8370361328125	1273.034057617188	-445.8815002441406	-914.8189697265625	1093.662231445312	-441.9349975585937	-1096.0234375	1210.126708984375	-432.9732055664062	-1128.288452148438	1156.920776367188	-428.2136230468749	-930.9760131835938	1173.951171875	-541.0910034179686	-1043.241577148438	1263.67333984375	-315.9755554199218	-980.5261840820312	1048.980712890625	-217.7950744628906	-970.0671997070312	975.757080078125	-188.1412658691406	-986.5283813476562	893.7263793945312	-143.6535339355468	-1032.943359375	774.6708374023438	-87.29778289794918	-1087.948364257812	779.010498046875	-126.0290756225586	-1119.789794921875	721.7158203125	-81.20968627929683	-1058.572265625	1246.225219726562	-565.3952636718749	-1047.491088867188	1071.56982421875	-651.6581420898436	-1026.097778320312	952.0869140625	-703.4031982421874	-1086.713623046875	823.2819213867188	-755.6710205078125	-1099.0537109375	743.1187744140625	-775.082275390625	-1142.006713867188	739.7805786132812	-723.3201293945312	-1183.234130859375	692.5107421875	-768.6407470703125	-916.931640625	874.44677734375	-428.2058410644531	-1074.062255859375	870.9234008789062	-277.9859313964843	-1124.228881835938	876.1458129882812	-521.4370727539062	-1129.6875	585.7631225585938	-242.9238128662109	-1080.7880859375	474.1244812011719	-230.4704895019531	-1204.289916992188	531.2315673828125	-276.7128906249999	-1033.876098632812	217.0014953613282	-282.4421997070312	-950.8027954101562	148.7097320556641	-342.3093566894531	-1062.625366210938	131.4622192382813	-254.3029632568359	-973.8858032226562	41.88064956665041	-368.0152893066406	-1083.23046875	41.35154342651369	-262.35205078125	-1134.415283203125	605.3853759765625	-591.8381958007812	-1058.829467773438	506.6351928710938	-584.2784423828125	-1200.246215820312	532.8768310546875	-582.5933227539062	-1092.090698242188	265.8110351562501	-586.7993774414062	-983.9387817382812	217.4144744873047	-562.111572265625	-1118.736206054688	175.2855072021485	-581.7921752929688	-981.8675537109375	45.01204681396487	-499.7992858886719	-1123.544067382812	41.99885177612308	-570.0352783203125	-1148.925537109375	432.3599243164062	-267.8942565917969	-1164.2568359375	421.3152465820312	-367.44970703125	-994.3240356445312	49.72610092163088	-304.9115905761719	-1045.003662109375	47.02542495727541	-356.9975891113281	-1168.96826171875	422.7068481445313	-465.59130859375	-1168.820190429688	438.3413391113282	-568.22216796875	-1062.745361328125	52.55435562133792	-490.1072692871094	-1019.134399414062	47.90394973754886	-551.9657592773438	-985.5120239257812	874.2261352539062	-423.1125793457031	-991.1936645507812	874.1915283203125	-421.9425354003906	-984.3414916992188	874.104248046875	-417.4322204589843	-985.6049194335938	932.222412109375	-421.8490295410156	-1156.591186523438	426.8375854492188	-317.6719970703125	-1168.894165039062	430.5240783691407	-516.90673828125	-1019.663818359375	48.37576293945315	-330.95458984375	-1040.93994140625	50.22915267944339	-521.0364990234375	-1045.003662109375	47.02542495727541	-356.9975891113281	-1062.745361328125	52.55435562133792	-490.1072692871094	-1086.032470703125	610.997314453125	-224.4394836425781	-1118.962036132812	622.8743896484375	-602.080810546875	-1009.321594238281	243.9647674560547	-242.4586639404297	-1041.876342773438	243.5577850341797	-613.1802368164062	0	0	0	0	0	0	0	0	0	0	0	0	-1045.827514648438	782.3988037109375	-353.2445373535156	-1068.695556640625	784.0164794921875	-466.9772949218749	0.09166853874921799	-11.63905620574951	1.24777591228485	0.09166853874921799	11.63905620574951	-1.24777591228485	0.1833610236644745	-44.03619384765625	-13.19167613983155	1.17460310459137	-26.34271049499512	-9.452611923217775	18.37740135192871	5.046672821044922	3.05711317062378	14.27797603607178	-9.418708801269531	9.575987815856934	37.80864715576172	-34.32231903076172	-2.296185493469241	34.40964508056641	-30.3705997467041	-7.078756332397463	15.39552116394043	-2.569156885147095	-1.285184860229492	15.35384845733643	5.111679077148438	0.4184403419494632	4.96961674779611e-17	-3.18055471858951e-15	1.012559384652907e-15	-1.590277359294755e-15	-3.18055471858951e-15	-4.39811058191718e-15	15.15628528594971	0	0	15.19900131225586	0	0	-11.05946063995361	7.448790073394775	1.771273612976075	-11.05946063995361	-7.448790073394775	-1.771273612976075	4.238959789276123	7.196335315704346	-3.730823993682861	4.238959789276123	-7.196335315704346	3.730823993682861	-10.31571865081787	-10.9823989868164	-18.50234031677246	39.4847412109375	1.289714971104694e-12	1.590277359294834e-15	16.23948669433594	130.3146667480469	13.89567279815675	-7.745073318481445	0.8459965586662308	-25.10264015197754	36.26816940307617	3.698985128613996e-12	8.348956427465267e-15	19.09629058837891	133.3033142089844	0.8047429919242941	4.609861373901367	4.615931034088135	2.136824131011963	4.609861373901367	-4.615931034088135	-2.136824131011963	6.34846019744873	-2.848908424377441	-0.181939944624901	6.34846019744873	2.848908424377441	0.181939944624901	0	0	0	0	0	0	0	0	0	0	0	0	0	0	0	0	0	0	
133	0.88	-1140.92724609375	1436.0107421875	-392.4630126953124	-1001.890930175781	1420.014526367188	-368.8343811035155	-1145.325439453125	1436.289794921875	-508.6243286132811	-992.0598754882812	1419.725708007812	-517.3988037109374	-965.7656860351562	1272.995727539062	-445.8269042968749	-914.8357543945312	1093.6005859375	-441.8919677734374	-1095.947265625	1210.215087890625	-432.9421386718749	-1128.282958984375	1157.049560546875	-428.1892700195312	-930.93896484375	1173.901489257812	-541.0526733398436	-1043.192993164062	1263.688842773438	-315.9432067871093	-980.5478515625	1048.990966796875	-217.7330932617187	-970.1439208984375	975.783203125	-188.0474395751953	-986.638427734375	893.7705688476562	-143.5352020263671	-1033.084838867188	774.7379150390625	-87.13545227050777	-1088.067749023438	779.1039428710938	-125.8080520629882	-1119.976440429688	721.8372802734375	-81.00881958007808	-1058.4189453125	1246.249633789062	-565.3759765624999	-1047.405395507812	1071.611572265625	-651.6450195312499	-1026.113525390625	952.106201171875	-703.3926391601561	-1086.858520507812	823.370849609375	-755.6979370117188	-1099.216064453125	743.2158203125	-775.0795288085938	-1142.228759765625	739.9205322265625	-723.3563842773438	-1183.495239257812	692.7184448242188	-768.7081909179688	-917.0292358398438	874.4133911132812	-428.2008056640624	-1074.220336914062	870.9471435546875	-278.0353393554687	-1124.291259765625	876.1403198242188	-521.5135498046875	-1129.81787109375	585.7723999023438	-242.9563293457031	-1080.908447265625	474.1385803222656	-230.4436645507812	-1204.385375976562	531.2158203125	-276.7741088867187	-1033.899536132812	217.0035552978516	-282.4490966796875	-950.8142700195312	148.7258758544922	-342.3217468261719	-1062.631103515625	131.4594268798828	-254.2990112304688	-973.894775390625	41.88625717163088	-368.0154418945312	-1083.234741210938	41.34985733032228	-262.3442687988281	-1134.494262695312	605.3729248046875	-591.809326171875	-1058.897583007812	506.6334838867188	-584.212646484375	-1200.317260742188	532.8480834960938	-582.5635375976562	-1092.150146484375	265.8006286621094	-586.7645263671875	-983.98291015625	217.4176788330078	-562.0983276367188	-1118.77294921875	175.2820281982422	-581.7548217773438	-981.872314453125	45.01496124267581	-499.7945251464844	-1123.547973632812	41.99118041992191	-570.0269165039062	-1149.002075195312	432.339599609375	-267.9089965820312	-1164.3115234375	421.296630859375	-367.4843139648438	-994.332275390625	49.72975158691408	-304.9096374511719	-1045.006225585938	47.02383041381838	-356.9948120117188	-1169.016967773438	422.7038574218751	-465.5384826660156	-1168.886840820312	438.3187255859376	-568.162353515625	-1062.745239257812	52.54268646240237	-490.0945739746094	-1019.145263671875	47.9067535400391	-551.9588623046875	-985.6127319335938	874.2078247070312	-423.1307983398437	-991.294921875	874.1746215820312	-421.9630126953124	-984.4445190429688	874.086669921875	-417.4499206542968	-985.6939697265625	932.204345703125	-421.8771972656249	-1156.65673828125	426.818115234375	-317.6966552734375	-1168.951904296875	430.5112915039063	-516.8504028320312	-1019.669311523438	48.37679290771487	-330.9522399902344	-1040.9453125	50.22472000122073	-521.0267333984375	-1045.006225585938	47.02383041381838	-356.9948120117188	-1062.745239257812	52.54268646240237	-490.0945739746094	-1086.160034179688	611.0010375976562	-224.4631195068359	-1119.06201171875	622.8400268554688	-602.0679931640625	-1009.36328125	243.9718322753907	-242.4649658203125	-1041.921142578125	243.5642242431641	-613.15869140625	0	0	0	0	0	0	0	0	0	0	0	0	-1045.974975585938	782.4044799804688	-353.2715759277343	-1068.7978515625	784.00830078125	-467.0136108398437	0.08022889494895935	-11.61648559570312	1.238373517990112	0.08022889494895935	11.61648559570312	-1.238373517990112	0.1862276941537857	-44.0382194519043	-13.19963645935059	1.177608489990234	-26.34319686889648	-9.46102809906006	18.35022735595703	5.034067153930664	3.060719251632691	14.26498317718506	-9.388480186462402	9.561938285827637	37.8037109375	-34.32805252075195	-2.299821853637698	34.40890121459961	-30.37641525268555	-7.063826084136965	15.39675235748291	-2.575263977050781	-1.286969661712647	15.35443115234375	5.102348327636719	0.4158911705017093	-2.484808473159728e-16	-1.590277359294755e-15	-3.708576634941238e-15	-3.975693398236888e-16	-7.683606909018861e-31	1.254828235270527e-14	15.15756797790527	0	0	15.19856262207031	0	0	-11.02022171020508	7.473966121673584	1.707874059677124	-11.02022171020508	-7.473966121673584	-1.707874059677124	4.213352680206299	7.178699493408203	-3.714696884155273	4.213352680206299	-7.178699493408203	3.714696884155273	-10.32998847961426	-10.99734210968017	-18.5255126953125	39.47733306884766	-4.945762766342399e-13	-4.770832183763414e-15	16.26981925964355	130.2814178466797	13.91412734985352	-7.746582984924316	0.8397591710090653	-25.10283279418945	36.28060913085938	1.836770319174619e-12	3.975693398238013e-16	19.11882400512695	133.2727355957031	0.7727619409561239	4.571322441101074	4.609559059143066	2.132612943649292	4.571322441101074	-4.609559059143066	-2.132612943649292	6.349668025970459	-2.891301393508911	-0.1279442757368089	6.349668025970459	2.891301393508911	0.1279442757368089	0	0	0	0	0	0	0	0	0	0	0	0	0	0	0	0	0	0	
134	0.8866666666666667	-1140.831298828125	1436.094970703125	-392.5790710449218	-1001.811157226562	1420.111450195312	-368.8500061035155	-1145.139282226562	1436.25634765625	-508.7610473632811	-991.8780517578125	1419.675537109375	-517.4040527343749	-965.6961059570312	1272.960083007812	-445.7727050781249	-914.8491821289062	1093.540649414062	-441.8576354980468	-1095.8798828125	1210.294189453125	-432.9038085937499	-1128.274047851562	1157.16650390625	-428.1604919433593	-930.91015625	1173.851806640625	-541.0200195312499	-1043.138305664062	1263.689453125	-315.9072265624999	-980.5761108398438	1048.986694335938	-217.6732330322265	-970.185302734375	975.8322143554688	-187.9178771972656	-986.744140625	893.8014526367188	-143.4128723144531	-1033.232788085938	774.7833862304688	-86.98242187499996	-1088.202758789062	779.19091796875	-125.5849685668945	-1120.1640625	721.9547729492188	-80.78811645507808	-1058.268310546875	1246.279296875	-565.3482666015624	-1047.330688476562	1071.662475585938	-651.6295776367186	-1026.1396484375	952.1370849609375	-703.3908081054686	-1087.007934570312	823.4724731445312	-755.735595703125	-1099.391235351562	743.3292236328125	-775.0836181640625	-1142.444458007812	740.0718994140625	-723.3950805664062	-1183.755615234375	692.939453125	-768.7694091796875	-917.1349487304688	874.3798828125	-428.2098693847656	-1074.375366210938	870.9572143554688	-278.0796508789062	-1124.362426757812	876.1398315429688	-521.5746459960938	-1129.956909179688	585.7808837890625	-242.9866485595703	-1081.032348632812	474.1511535644531	-230.4208221435547	-1204.493774414062	531.2003173828125	-276.8380126953124	-1033.925415039062	217.0021362304688	-282.453857421875	-950.8270263671875	148.7420501708985	-342.3323059082031	-1062.6435546875	131.4502716064453	-254.2972106933594	-973.9013671875	41.89171218872072	-368.0143432617188	-1083.237915039062	41.3458595275879	-262.337158203125	-1134.562622070312	605.365966796875	-591.7880859375	-1058.955200195312	506.6398315429688	-584.1498413085938	-1200.370239257812	532.8226928710938	-582.5445556640625	-1092.2080078125	265.7934570312501	-586.7332153320312	-984.0154418945312	217.4206695556641	-562.0831909179688	-1118.801513671875	175.2812957763672	-581.7275390625	-981.8762817382812	45.01807403564456	-499.7910766601562	-1123.5478515625	41.98114013671879	-570.0230712890625	-1149.088012695312	432.3152465820312	-267.9208374023438	-1164.3623046875	421.271240234375	-367.5162963867188	-994.3380126953125	49.73042297363283	-304.9110717773438	-1045.009887695312	47.02104568481447	-356.9918212890625	-1169.0537109375	422.7011413574219	-465.49365234375	-1168.941772460938	438.3014221191407	-568.1139526367188	-1062.744750976562	52.53288269042972	-490.0848083496094	-1019.154907226562	47.90808105468754	-551.9531860351562	-985.7178955078125	874.1879272460938	-423.1449584960937	-991.4004516601562	874.156005859375	-421.9791259765624	-984.5516357421875	874.0670166015625	-417.4636840820312	-985.7877807617188	932.1845703125	-421.8963012695312	-1156.725219726562	426.7932434082031	-317.7185668945312	-1168.997802734375	430.5012817382813	-516.8037719726562	-1019.673950195312	48.37573242187502	-330.9514465332031	-1040.949829101562	50.22048187255862	-521.0189819335938	-1045.009887695312	47.02104568481447	-356.9918212890625	-1062.744750976562	52.53288269042972	-490.0848083496094	-1086.302856445312	611.00341796875	-224.4839477539062	-1119.159545898438	622.8112182617188	-602.0574340820312	-1009.401672363281	243.9769134521485	-242.4757385253906	-1041.9580078125	243.5690460205078	-613.1416625976562	0	0	0	0	0	0	0	0	0	0	0	0	-1046.1220703125	782.402587890625	-353.2985229492187	-1068.906005859375	784.0013427734375	-467.0484313964843	0.06923662126064301	-11.59702682495117	1.233521819114684	0.06923662126064301	11.59702682495117	-1.233521819114684	0.1892761886119843	-44.04079055786133	-13.20763778686524	1.182309508323669	-26.34598541259766	-9.467291831970217	18.32527732849121	5.033486843109131	3.06776762008667	14.24973392486572	-9.362125396728516	9.545726776123047	37.79985809326172	-34.34296798706055	-2.308954238891604	34.40400695800781	-30.38285064697266	-7.051923751831056	15.39858627319336	-2.578612089157104	-1.288049936294556	15.35221290588379	5.092223167419434	0.4130443334579471	3.255098911903809e-15	1.590277359294755e-15	1.099527709006766e-14	5.96354022970423e-16	9.129037905286542e-32	-1.490885030956278e-15	15.15909767150879	0	0	15.19606113433838	0	0	-10.98769664764404	7.505433559417725	1.642544627189637	-10.98769664764404	-7.505433559417725	-1.642544627189637	4.191112041473389	7.160984039306641	-3.700865745544433	4.191112041473389	-7.160984039306641	3.700865745544433	-10.348801612854	-10.96905612945556	-18.56182479858398	39.48726272583008	3.934346338302364e-12	2.40909232496955e-28	16.29774284362793	130.2007141113281	13.89019203186036	-7.74470043182373	0.8355970978736893	-25.10332870483398	36.29209899902344	-2.488784135376565e-12	2.38541609188154e-15	19.14090919494629	133.2487945556641	0.7440262436866841	4.536949157714844	4.606320858001709	2.125623464584351	4.536949157714844	-4.606320858001709	-2.125623464584351	6.353470325469971	-2.936556100845337	-0.07567042112350482	6.353470325469971	2.936556100845337	0.07567042112350482	0	0	0	0	0	0	0	0	0	0	0	0	0	0	0	0	0	0	
135	0.8933333333333334	-1140.734741210938	1436.178833007812	-392.6876831054686	-1001.731506347656	1420.198852539062	-368.8511352539061	-1144.9501953125	1436.228759765625	-508.8851013183593	-991.7039184570312	1419.625732421875	-517.4014282226561	-965.626708984375	1272.927490234375	-445.7180480957031	-914.8560791015625	1093.48388671875	-441.8311157226562	-1095.819702148438	1210.362915039062	-432.8612976074218	-1128.26318359375	1157.268920898438	-428.1304321289062	-930.8848266601562	1173.8056640625	-540.9896850585936	-1043.075317382812	1263.676635742188	-315.8676147460937	-980.60986328125	1048.968017578125	-217.6159210205078	-970.2255859375	975.8564453125	-187.8001251220703	-986.8385620117188	893.8150634765625	-143.2891387939453	-1033.384399414062	774.8157958984375	-86.83094787597652	-1088.358642578125	779.2686157226562	-125.371841430664	-1120.348876953125	722.0658569335938	-80.55091094970699	-1058.126220703125	1246.3154296875	-565.3126831054686	-1047.269653320312	1071.720947265625	-651.6110229492186	-1026.17333984375	952.1790771484375	-703.3955078124999	-1087.16259765625	823.58837890625	-755.7844848632812	-1099.594848632812	743.4527587890625	-775.1194458007812	-1142.6513671875	740.236572265625	-723.438232421875	-1184.005126953125	693.164794921875	-768.8306274414062	-917.24658203125	874.3438110351562	-428.2309265136718	-1074.522705078125	870.9549560546875	-278.1174926757812	-1124.442260742188	876.1452026367188	-521.6199951171875	-1130.1005859375	585.7870483398438	-243.0159454345703	-1081.1591796875	474.1646423339844	-230.4051208496093	-1204.613525390625	531.1859741210938	-276.9044189453124	-1033.954833984375	216.9984130859375	-282.4564514160156	-950.8425903320312	148.7580718994141	-342.3414001464844	-1062.6630859375	131.4364013671875	-254.2968444824219	-973.9060668945312	41.89764785766604	-368.0121459960938	-1083.239868164062	41.33993911743165	-262.3316650390625	-1134.620361328125	605.3641357421875	-591.773681640625	-1059.003173828125	506.6547851562501	-584.0922241210938	-1200.409545898438	532.803466796875	-582.5341796875	-1092.261840820312	265.7897033691407	-586.7066040039062	-984.0382690429688	217.4234619140625	-562.0684204101562	-1118.822387695312	175.2824401855469	-581.7100219726562	-981.8795166015625	45.0214767456055	-499.7889404296875	-1123.54443359375	41.96964263916019	-570.0236206054688	-1149.194213867188	432.2979125976562	-267.9232788085938	-1164.408813476562	421.2423400878906	-367.5404663085938	-994.3407592773438	49.72740936279299	-304.9154663085938	-1045.015014648438	47.01700973510744	-356.9894714355469	-1169.078857421875	422.6960144042969	-465.4579162597656	-1168.986450195312	438.2908935546876	-568.0780029296875	-1062.744506835938	52.5253829956055	-490.0775756835938	-1019.1630859375	47.90829086303714	-551.9490966796875	-985.8251342773438	874.1657104492188	-423.1561279296874	-991.5079956054688	874.1349487304688	-421.9917907714843	-984.660400390625	874.0446166992188	-417.4745483398437	-985.8834228515625	932.1624145507812	-421.9080505371093	-1156.801513671875	426.7701110839844	-317.7318725585938	-1169.03271484375	430.4934387207032	-516.7680053710938	-1019.677856445312	48.37220764160158	-330.9524536132812	-1040.953735351562	50.21683883666995	-521.0133056640625	-1045.015014648438	47.01700973510744	-356.9894714355469	-1062.744506835938	52.5253829956055	-490.0775756835938	-1086.476318359375	611.0140380859375	-224.4985198974609	-1119.25732421875	622.7887573242188	-602.0493774414062	-1009.437927246094	243.9826354980469	-242.4859161376953	-1041.987182617188	243.5721588134766	-613.1292724609375	0	0	0	0	0	0	0	0	0	0	0	0	-1046.267211914062	782.3934936523438	-353.3248596191406	-1069.020141601562	783.995849609375	-467.0809020996093	0.05764386802911758	-11.58168029785156	1.232883691787719	0.05764386802911758	11.58168029785156	-1.232883691787719	0.1918619126081467	-44.04365921020508	-13.21579837799073	1.188333630561829	-26.35087013244629	-9.47149181365967	18.30295944213867	5.053408622741699	3.078452587127686	14.23096942901611	-9.339371681213379	9.527985572814941	37.79871368408203	-34.37201690673828	-2.329525709152224	34.39504623413086	-30.3908519744873	-7.044099330902101	15.40235996246338	-2.579452514648438	-1.288612246513367	15.34776496887207	5.081602573394775	0.4099995195865634	-3.727212577390695e-16	1.590277359294755e-15	-4.615531657499623e-15	-5.96354022970423e-16	1.590277359294755e-15	-3.702364495306075e-15	15.1616039276123	0	0	15.19203090667725	0	0	-10.96193313598633	7.539772510528564	1.577368259429932	-10.96193313598633	-7.539772510528564	-1.577368259429932	4.173042774200439	7.145657539367676	-3.68892765045166	4.173042774200439	-7.145657539367676	3.68892765045166	-10.36032962799072	-10.94976711273193	-18.59692001342773	39.49817657470703	-1.353325979926157e-12	-3.975693557055648e-15	16.31330871582031	130.1295776367188	13.85491943359376	-7.739638328552246	0.8257191181182877	-25.10296249389648	36.3025016784668	1.493270459541896e-12	9.143644442696397e-29	19.15202331542969	133.2463836669922	0.7316761016845784	4.506377220153809	4.604777336120605	2.115843772888184	4.506377220153809	-4.604777336120605	-2.115843772888184	6.360259532928467	-2.982352256774902	-0.02681246213614959	6.360259532928467	2.982352256774902	0.02681246213614959	0	0	0	0	0	0	0	0	0	0	0	0	0	0	0	0	0	0	
